<?xml version="1.0" encoding="UTF-8"?>
<svg version="1.1" xmlns="http://www.w3.org/2000/svg" width="512" height="512">
<path d="M0 0 C1.9589134 -0.00322582 3.91782657 -0.0065908 5.8767395 -0.01008606 C9.9663346 -0.01603615 14.0559087 -0.01793039 18.14550781 -0.01733398 C22.28585196 -0.01725297 26.4260849 -0.02416223 30.56640625 -0.0378418 C75.33739044 -0.1834774 75.33739044 -0.1834774 95.5078125 2.16796875 C96.1924054 2.24367096 96.87699829 2.31937317 97.58233643 2.39736938 C101.36377908 2.82074117 105.12306145 3.33399617 108.8828125 3.91796875 C109.99035889 4.0886084 111.09790527 4.25924805 112.23901367 4.43505859 C149.84647384 10.44779441 187.51789919 20.65861849 217.5078125 45.16796875 C218.10916016 45.65265625 218.71050781 46.13734375 219.33007812 46.63671875 C257.6960273 77.7508148 274.11995708 124.78636925 279.1953125 172.79296875 C281.11057756 191.27753366 281.66923614 209.64924496 281.67578125 228.21875 C281.67900806 230.41041585 281.68237311 232.60208151 281.68586731 234.79374695 C281.69181321 239.36649066 281.69371206 243.9392156 281.69311523 248.51196289 C281.69303421 253.13797943 281.69994515 257.76389644 281.71362305 262.38989258 C282.04718854 376.91362154 282.04718854 376.91362154 253.5078125 426.16796875 C253.16959473 426.75497559 252.83137695 427.34198242 252.48291016 427.94677734 C229.77384914 466.80262535 190.01848377 489.38578861 147.52166748 500.69659424 C127.80870183 505.79420193 107.75749743 509.09367761 87.5078125 511.16796875 C86.73169113 511.25385254 85.95556976 511.33973633 85.15592957 511.42822266 C75.02509635 512.42772073 64.88403464 512.35137585 54.71484375 512.37109375 C53.71894415 512.37392113 52.72304455 512.3767485 51.69696617 512.37966156 C46.40694294 512.39459711 41.11694649 512.40385721 35.8269043 512.40820312 C31.52668614 512.41255345 27.22667251 512.4263184 22.92651367 512.44921875 C-49.1310147 512.82528986 -127.89165169 506.90980081 -182.12109375 453.66796875 C-191.34301885 444.28103903 -198.43838847 433.81685987 -204.4921875 422.16796875 C-204.93723633 421.34780273 -205.38228516 420.52763672 -205.84082031 419.68261719 C-210.41614302 410.98205237 -213.56564884 401.98144484 -216.6171875 392.66796875 C-216.88087128 391.86817596 -217.14455505 391.06838318 -217.41622925 390.24435425 C-228.72903357 355.78438783 -230.64744024 320.19446541 -230.66015625 284.1171875 C-230.66338306 281.92552165 -230.66674811 279.73385599 -230.67024231 277.54219055 C-230.67618821 272.96944684 -230.67808706 268.3967219 -230.67749023 263.82397461 C-230.67740921 259.19795807 -230.68432015 254.57204106 -230.69799805 249.94604492 C-230.89326981 182.89651994 -229.49705565 106.50428271 -179.4921875 55.16796875 C-170.73495686 46.63786346 -160.96119354 39.446949 -150.4921875 33.16796875 C-149.75742188 32.72598145 -149.02265625 32.28399414 -148.265625 31.82861328 C-104.72452916 6.18997052 -49.55108735 0.01948899 0 0 Z " fill="#FF464B" transform="translate(230.4921875,-0.16796875)"/>
<path d="M0 0 C16.99600694 10.79233623 21.64264697 27.10368753 26.99659729 45.4070282 C30.68367431 58.00831166 34.47855628 70.576556 38.27734375 83.14453125 C38.97333053 85.44885003 39.66925727 87.75318694 40.36512756 90.05754089 C42.18541599 96.08488645 44.00640162 102.11202111 45.82757568 108.13909912 C48.7376358 117.77022191 51.64660457 127.40167438 54.55560493 137.03311729 C55.56004773 140.3583896 56.56477937 143.68357451 57.56956482 147.00874329 C57.88532754 148.05407573 58.20109026 149.09940817 58.52642155 150.17641735 C59.14046033 152.20884745 59.75485685 154.24116951 60.36964321 156.2733736 C61.84579478 161.15710087 63.31189266 166.0434827 64.75906372 170.93588257 C65.1749228 172.33739956 65.1749228 172.33739956 65.59918308 173.76723003 C66.12094699 175.52773146 66.64010292 177.28900861 67.15624142 179.05116749 C68.01737528 182.82416656 68.01737528 182.82416656 70 186 C74.55821045 171.08610399 79.05973023 156.15610934 83.51355362 141.21072388 C84.53958568 137.76840145 85.5667393 134.32641543 86.59420776 130.88452148 C89.50965733 121.11802032 92.4244778 111.35133307 95.33544922 101.58349609 C97.13101431 95.55872694 98.92893882 89.53466612 100.72835922 83.51104736 C101.40612916 81.24059782 102.08304423 78.96989287 102.75903702 76.69891357 C106.02710233 65.72104312 109.31170741 54.76571133 113.02352905 43.92854309 C114.36940118 39.89212549 115.44477583 35.80694204 116.5 31.6875 C120.21950908 18.02174813 125.94582517 8.22902007 138 0.0625 C148.60305041 -5.85841132 160.64657153 -6.59112923 172.4453125 -4.34375 C183.87545883 -0.95270915 193.26446231 7.22294472 199.25 17.5 C203.46198745 26.67997264 204.05281055 38.07229923 205.40234375 47.97265625 C206.14467402 53.16896816 207.08587283 58.33172962 208 63.5 C209.30115742 70.86118857 210.49548859 78.21022589 211.50390625 85.6171875 C212.27917956 90.90369685 213.2519327 96.15180817 214.21875 101.40625 C214.86877769 105.0767465 215.39689009 108.75755892 215.91088867 112.44946289 C216.90567212 119.45267704 218.03082197 126.42760693 219.20703125 133.40234375 C219.51576424 135.24625954 219.51576424 135.24625954 219.83073425 137.12742615 C220.37780255 140.39420465 220.92620624 143.66075567 221.47503662 146.92723846 C222.38167418 152.32805743 223.28349195 157.72968488 224.18581772 163.13122559 C224.40795145 164.46096569 224.63013199 165.79069797 224.85235977 167.12042236 C226.59267695 177.53470682 228.3175286 187.95121179 230 198.375 C230.27420776 200.06677368 230.27420776 200.06677368 230.55395508 201.79272461 C231.41397463 207.15060927 232.215552 212.51164447 232.9609375 217.88671875 C233.80680322 223.88392323 234.85293458 229.827256 235.95507812 235.78198242 C242.26862869 270.2327086 242.26862869 270.2327086 233.0625 283.75 C227.47110454 290.26750651 220.90517535 293.81424659 212.31640625 294.50390625 C204.06115881 294.84432882 196.01799698 294.86474791 189 290 C188.4328125 289.63777344 187.865625 289.27554687 187.28125 288.90234375 C179.53818258 283.30380236 177.86075381 273.81288386 176 265 C175.20529921 259.99335084 174.59436518 254.97140922 174 249.9375 C173.66183113 247.17394269 173.31774056 244.4111389 172.97265625 241.6484375 C172.88935562 240.97746536 172.80605499 240.30649323 172.7202301 239.6151886 C171.98773473 233.77019851 171.08785769 227.96389739 170.11941528 222.15435791 C169.12913997 216.08859753 168.36010462 210.00752721 167.625 203.90625 C166.25171427 192.72489057 164.67062985 181.58263356 163.00982666 170.44082642 C160.55930089 153.98813217 158.20404272 137.53088194 156.15454102 121.02319336 C155.94269165 119.31981812 155.94269165 119.31981812 155.7265625 117.58203125 C155.54988037 116.13147339 155.54988037 116.13147339 155.36962891 114.65161133 C155.12064851 112.86549764 154.81625402 111.0863441 154.46069336 109.31835938 C153.94471772 106.72180152 153.90224185 104.33186114 153.9375 101.6875 C153.94652344 100.80449219 153.95554687 99.92148438 153.96484375 99.01171875 C153.98224609 98.01591797 153.98224609 98.01591797 154 97 C153.34 97 152.68 97 152 97 C151.72760498 98.27818604 151.45520996 99.55637207 151.17456055 100.87329102 C150.03789088 105.98173469 148.65066439 110.99837032 147.20703125 116.02734375 C146.94018021 116.96557983 146.67332916 117.90381592 146.39839172 118.8704834 C145.83102177 120.86503068 145.26259292 122.85927702 144.69317627 124.85324097 C143.2103328 130.04637892 141.73514236 135.2416825 140.26171875 140.4375 C139.97377441 141.4528331 139.68583008 142.4681662 139.38916016 143.51426697 C137.23229237 151.13783615 135.14991809 158.77773821 133.125 166.4375 C130.90090124 174.82583519 128.47373681 183.12593437 125.90478516 191.41455078 C122.95421525 201.00511822 120.2220341 210.65516643 117.5 220.3125 C117.26161407 221.15669495 117.02322815 222.00088989 116.77761841 222.8706665 C114.11162734 232.32054254 111.51203824 241.78100964 109.04321289 251.28442383 C101.41846411 280.49341152 101.41846411 280.49341152 91 288 C80.94421802 293.64912958 69.18931659 294.73617695 57.94140625 292.3515625 C49.51880168 289.27685194 43.60391926 283.57689547 39 276 C35.53163092 267.94410788 33.27187761 259.52760379 31.09765625 251.05078125 C29.89399798 246.48186205 28.44865659 241.99609429 27 237.5 C24.80126691 230.66562165 22.86024174 223.82626806 21.0625 216.875 C19.86076791 212.36850467 18.42758632 207.93907371 17 203.5 C14.84243121 196.78098062 12.90193229 190.04729976 11.12890625 183.21484375 C7.79775888 170.57653956 3.9782193 158.04557469 0.0859375 145.5703125 C-1.76545939 139.48334576 -3.51050788 133.36506242 -5.27758789 127.25317383 C-7.46564623 119.72674843 -9.77463271 112.2464659 -12.22216797 104.80029297 C-13.20964895 101.75380908 -14 99.22484997 -14 96 C-14.66 96 -15.32 96 -16 96 C-15.96156982 97.67002075 -15.96156982 97.67002075 -15.92236328 99.3737793 C-15.92575757 104.32476142 -16.55214896 109.12372757 -17.2421875 114.01953125 C-17.37062042 114.95874924 -17.49905334 115.89796722 -17.63137817 116.86564636 C-17.90292089 118.84347926 -18.17704335 120.82095952 -18.45361328 122.7980957 C-18.87218188 125.79234047 -19.2824825 128.78762753 -19.69140625 131.78320312 C-19.95784522 133.71621318 -20.22475711 135.64915811 -20.4921875 137.58203125 C-20.67356766 138.90289482 -20.67356766 138.90289482 -20.85861206 140.2504425 C-21.61734859 145.65296119 -22.53690307 151.00814909 -23.5317688 156.37187195 C-24.20695376 160.16160772 -24.72558834 163.96422586 -25.21875 167.78125 C-25.32215698 168.56085083 -25.42556396 169.34045166 -25.53210449 170.14367676 C-25.85724972 172.59546083 -26.17907414 175.04766031 -26.5 177.5 C-28.86084629 195.5402944 -28.86084629 195.5402944 -29.96875 201.28125 C-31.72090924 210.45017969 -32.7704922 219.74985122 -34 229 C-37.09842383 252.31085778 -37.09842383 252.31085778 -39 262 C-39.29257412 263.6873429 -39.58433478 265.37482722 -39.875 267.0625 C-41.31557358 274.13031412 -43.57823497 282.00626905 -49 287 C-59.66329265 293.25888916 -69.79429159 294.25179967 -82 293 C-89.56512132 290.83981725 -95.08445105 286.30923974 -99.1875 279.625 C-106.72215607 265.34880955 -102.06866013 248.84304881 -99.375 233.8125 C-99.00352449 231.69393288 -98.63301211 229.57519667 -98.26342773 227.45629883 C-97.35041095 222.23535542 -96.42538266 217.01662812 -95.49664307 211.79846191 C-94.8058726 207.90613969 -94.12679657 204.0118238 -93.44921875 200.1171875 C-91.3159852 187.88482723 -89.1225354 175.66357893 -86.91015625 163.4453125 C-86.14809233 159.23443738 -85.38640502 155.02349431 -84.625 150.8125 C-84.43286926 149.75032257 -84.24073853 148.68814514 -84.04278564 147.59378052 C-81.2467893 132.11954836 -78.5515661 116.63093991 -75.9375 101.125 C-73.28134748 85.37836653 -70.53954805 69.64989537 -67.6875 53.9375 C-67.5223288 53.0236554 -67.35715759 52.10981079 -67.1869812 51.16827393 C-66.15026031 45.44056511 -65.09366385 39.71712344 -64 34 C-63.86607849 33.29876007 -63.73215698 32.59752014 -63.59417725 31.87503052 C-63.2204216 29.94587279 -62.83133632 28.01970362 -62.44140625 26.09375 C-62.22814697 25.03736328 -62.0148877 23.98097656 -61.79516602 22.89257812 C-59.32427494 13.90420922 -53.13599017 6.28490952 -45.35546875 1.30859375 C-30.89575272 -6.90041056 -14.82252042 -8.0061777 0 0 Z " fill="#FFFEFE" transform="translate(188,111)"/>
</svg>
